<svg xmlns="http://www.w3.org/2000/svg" viewBox="0 0 640.58 140" role="img" aria-labelledby="title description">
  <title id="title">FlowCompare</title>
  <desc id="description">Marca FlowCompare vetorizada com símbolo hexagonal e fluxo azul.</desc>
  <defs>
    <linearGradient id="blue" x1="0" y1="0" x2="1" y2="1"><stop stop-color="#1672fa"/><stop offset="0.55" stop-color="#075be8"/><stop offset="1" stop-color="#0646c7"/></linearGradient>
    <linearGradient id="steel" x1="0" y1="0" x2="1" y2="1"><stop stop-color="#445462"/><stop offset="0.55" stop-color="#263441"/><stop offset="1" stop-color="#3d4b58"/></linearGradient>
  </defs>
  <g transform="translate(0 6) scale(0.231047) translate(-96 -156)">
    <path d="M96 348L99 292L333 156L345 160L355 169L368 174L407 200L415 202L457 229L563 288L572 298L570 312L455 312L339 242L332 242L170 338L170 438L100 481L96 480ZM96 562L100 558L223 558L263 582L267 588L280 592L327 622L341 626L353 616L375 606L403 586L493 534L496 530L497 426L535 402L568 402L572 406L571 572L337 710L323 706L99 574Z" fill="url(#steel)" fill-rule="evenodd"/>
    <path d="M96 502L123 484L211 484L229 482L263 470L292 450L356 380L385 358L421 340L449 332L483 328L568 328L572 332L570 386L481 386L447 394L427 404L402 422L372 456L321 504L275 530L249 538L219 542L98 542Z" fill="url(#blue)" fill-rule="evenodd"/>
  </g>
  <g transform="translate(136.98 36.00) scale(0.223684) translate(-26 -158)">
    <path d="M26 211L30 193L42 174L69 160L223 160L220 204L87 204L80 209L76 219L78 261L208 262L210 304L79 306L76 317L76 396L72 400L28 398ZM256 165L260 158L304 160L302 400L260 400L256 396ZM340 267L344 255L354 242L367 234L383 230L481 232L502 244L514 265L514 365L508 379L500 388L483 398L473 400L381 400L371 398L354 388L348 381L340 361ZM386 283L386 347L393 356L461 356L468 348L468 281L461 274L395 274ZM533 232L583 232L617 332L621 331L626 319L654 235L658 232L700 232L737 334L741 333L748 315L774 233L778 230L824 232L766 397L762 400L718 400L714 397L679 300L672 311L644 395L639 400L594 399L562 319Z" fill="url(#blue)" fill-rule="evenodd"/>
    <path d="M868 203L876 185L888 172L904 163L925 158L1063 158L1070 163L1070 199L1064 204L927 204L918 211L914 221L914 337L918 347L929 354L1068 354L1070 396L1066 400L915 398L901 394L886 384L876 373L868 355ZM1102 271L1112 249L1123 240L1137 234L1239 234L1260 244L1268 253L1274 269L1274 363L1268 379L1255 392L1241 398L1201 400L1135 398L1119 390L1110 381L1102 360ZM1148 283L1148 349L1152 355L1161 358L1217 358L1229 350L1230 285L1219 274L1159 274L1153 276ZM1308 238L1312 234L1517 234L1535 238L1549 246L1564 269L1566 281L1565 397L1524 400L1520 396L1520 283L1515 277L1460 278L1460 394L1454 398L1418 400L1414 393L1416 287L1407 276L1356 276L1353 397L1347 400L1310 398ZM1598 239L1609 234L1727 236L1743 244L1752 253L1758 263L1762 285L1762 355L1758 371L1748 386L1731 396L1711 400L1646 400L1643 460L1602 462L1598 453ZM1644 278L1646 358L1707 358L1716 351L1716 284L1709 276ZM1790 327L1800 308L1823 296L1898 297L1904 294L1902 281L1893 274L1808 274L1808 237L1823 234L1915 236L1925 240L1938 251L1948 279L1948 396L1944 400L1861 400L1813 396L1800 386L1792 373ZM1834 337L1834 353L1842 361L1894 361L1904 358L1904 334L1839 332ZM1978 278L1980 265L1985 256L1994 246L2007 238L2084 238L2082 275L2031 276L2024 281L2022 395L2018 400L1979 396ZM2102 283L2104 265L2108 257L2114 254L2114 247L2133 236L2235 236L2258 252L2264 266L2264 315L2262 321L2251 332L2239 336L2148 336L2145 348L2153 361L2167 358L2205 361L2220 358L2260 360L2262 395L2258 400L2134 398L2115 388L2108 379L2102 363ZM2146 282L2148 300L2215 301L2222 296L2222 281L2211 274L2157 274Z" fill="url(#steel)" fill-rule="evenodd"/>
  </g>
</svg>
